<svg width="80%" height="80%" viewBox="0 0 64 64" version="1.1" xmlns="http://www.w3.org/2000/svg" xmlns:xlink="http://www.w3.org/1999/xlink" xml:space="preserve" xmlns:serif="http://www.serif.com/" style="fill-rule:evenodd;clip-rule:evenodd;stroke-linejoin:round;stroke-miterlimit:2;">
<title>ICON_TOOLBAR_FLIGHTCASE</title>
    <g transform="matrix(0.0761719,0,0,0.0761719,17.375,12.5)">
        <g id="HIGHLIGHT">
            <path d="M336,160L48,160C21.49,160 0,181.49 0,208L0,432C0,458.51 21.49,480 48,480L64,480L64,496C64,504.84 71.16,512 80,512L112,512C120.84,512 128,504.84 128,496L128,480L256,480L256,496C256,504.84 263.16,512 272,512L304,512C312.84,512 320,504.84 320,496L320,480L336,480C362.51,480 384,458.51 384,432L384,208C384,181.49 362.51,160 336,160ZM320,376C320,380.42 316.42,384 312,384L72,384C67.58,384 64,380.42 64,376L64,360C64,355.58 67.58,352 72,352L312,352C316.42,352 320,355.58 320,360L320,376ZM320,280C320,284.42 316.42,288 312,288L72,288C67.58,288 64,284.42 64,280L64,264C64,259.58 67.58,256 72,256L312,256C316.42,256 320,259.58 320,264L320,280ZM144,48L240,48L240,128L288,128L288,48C288,21.49 266.51,0 240,0L144,0C117.49,0 96,21.49 96,48L96,128L144,128L144,48Z" style="fill-rule:nonzero;"/>
        </g>
    </g>
</svg>
